<svg xmlns="http://www.w3.org/2000/svg" id="plan" class="tool-select" font-family="-apple-system,'PingFang SC','Microsoft YaHei',sans-serif" viewBox="-1230.9464 -1230.9464 11174.092799999999 8862.692799999999" style="font-family:Arial,sans-serif" width="3889" height="3085">
      <defs id="defs"><pattern id="m-wood" patternUnits="userSpaceOnUse" width="1800" height="360">
      <rect width="1800" height="360" fill="#dcc09a"/>
      <path d="M0 0H1800M0 180H1800M1200 0V180M600 180V360" stroke="#bf9d70" stroke-width="10"/>
      <path d="M100 70Q500 60 900 85T1700 75M200 260Q700 250 1100 275T1750 262" stroke="#bf9d70" stroke-width="5" fill="none" opacity=".45"/></pattern><pattern id="m-walnut" patternUnits="userSpaceOnUse" width="1800" height="360">
      <rect width="1800" height="360" fill="#a57c56"/>
      <path d="M0 0H1800M0 180H1800M1200 0V180M600 180V360" stroke="#80593a" stroke-width="10"/>
      <path d="M100 70Q500 60 900 85T1700 75M200 260Q700 250 1100 275T1750 262" stroke="#80593a" stroke-width="5" fill="none" opacity=".45"/></pattern><pattern id="m-tile800" patternUnits="userSpaceOnUse" width="800" height="800">
      <rect width="800" height="800" fill="#ece7de"/><path d="M0 0H800M0 0V800" stroke="#d3cabb" stroke-width="10"/></pattern><pattern id="m-tile600" patternUnits="userSpaceOnUse" width="600" height="600">
      <rect width="600" height="600" fill="#e2e6e3"/><path d="M0 0H600M0 0V600" stroke="#c4cbc6" stroke-width="10"/></pattern><pattern id="m-antislip" patternUnits="userSpaceOnUse" width="300" height="300">
      <rect width="300" height="300" fill="#d6dbd7"/><path d="M0 0H300M0 0V300" stroke="#b3bab4" stroke-width="10"/></pattern><pattern id="m-marble" patternUnits="userSpaceOnUse" width="1200" height="1200">
      <rect width="1200" height="1200" fill="#f3f0ea"/><path d="M0 0H1200M0 0V1200" stroke="#dcd5c8" stroke-width="10"/>
      <path d="M-50 300C250 260 380 520 700 470S1100 640 1260 600M200 1200C300 950 520 980 640 820" stroke="#d6cfc2" stroke-width="12" fill="none"/></pattern>
    <pattern id="m-terrazzo" patternUnits="userSpaceOnUse" width="500" height="500">
      <rect width="500" height="500" fill="#e8e1d5"/>
      <circle cx="60" cy="80" r="22" fill="#b9a58c"/><circle cx="310" cy="140" r="16" fill="#8fa3a0"/><circle cx="190" cy="330" r="26" fill="#c9b7a2"/>
      <circle cx="420" cy="400" r="18" fill="#a88f76"/><circle cx="90" cy="440" r="12" fill="#8fa3a0"/><circle cx="440" cy="40" r="10" fill="#b9a58c"/></pattern>
    <pattern id="m-carpet" patternUnits="userSpaceOnUse" width="120" height="120">
      <rect width="120" height="120" fill="#c9c3d3"/><circle cx="30" cy="30" r="8" fill="#bab3c6"/><circle cx="90" cy="90" r="8" fill="#bab3c6"/></pattern>
    <pattern id="grid" patternUnits="userSpaceOnUse" width="304.8" height="304.8"><path d="M152.4 0V304.8M0 152.4H304.8" stroke="#e5dfd3" stroke-width="2.4384"/><path d="M0 0V304.8M0 0H304.8" stroke="#d8d0c1" stroke-width="4.2672"/></pattern></defs>
      <rect x="-1230.9464" y="-1230.9464" width="11174.092799999999" height="8862.692799999999" fill="#f7f4ee"/><g id="gGrid"><rect x="-1230.9464" y="-1230.9464" width="11174.092799999999" height="8862.692799999999" fill="#f7f4ee"/></g>
      <g id="gReference" pointer-events="none"/>
      <g id="gRooms"><rect data-floor-slab="" x="2.842170943040401e-14" y="2.842170943040401e-14" width="3352.7999999999997" height="863.6" fill="url(#m-wood)" fill-opacity="1" pointer-events="none"/><rect data-floor-slab="" x="2.842170943040401e-14" y="863.6" width="3352.7999999999997" height="2997.2000000000003" fill="url(#m-wood)" fill-opacity="1" pointer-events="none"/><rect data-floor-slab="" x="3352.7999999999997" y="2.842170943040401e-14" width="1981.2000000000003" height="3149.6" fill="url(#m-wood)" fill-opacity="1" pointer-events="none"/><rect data-floor-slab="" x="5334" y="2.842170943040401e-14" width="1041.4000000000005" height="1219.2" fill="url(#m-wood)" fill-opacity="1" pointer-events="none"/><rect data-floor-slab="" x="6375.400000000001" y="2.842170943040401e-14" width="2336.7999999999984" height="3149.6" fill="url(#m-wood)" fill-opacity="1" pointer-events="none"/><rect data-floor-slab="" x="5334" y="1219.2" width="1041.4000000000005" height="1930.3999999999999" fill="url(#m-wood)" fill-opacity="1" pointer-events="none"/><rect data-floor-slab="" x="5334" y="3149.6" width="1041.4000000000005" height="3251.1999999999994" fill="url(#m-wood)" fill-opacity="1" pointer-events="none"/><rect data-floor-slab="" x="6375.400000000001" y="3149.6" width="25.399999999999636" height="3251.1999999999994" fill="url(#m-wood)" fill-opacity="1" pointer-events="none"/><rect data-floor-slab="" x="3352.7999999999997" y="3149.6" width="1981.2000000000003" height="3251.1999999999994" fill="url(#m-wood)" fill-opacity="1" pointer-events="none"/><rect data-floor-slab="" x="2.842170943040401e-14" y="3860.8" width="3352.7999999999997" height="2539.999999999999" fill="url(#m-wood)" fill-opacity="1" pointer-events="none"/><rect data-floor-slab="" x="6400.8" y="3149.6" width="2311.3999999999987" height="3251.1999999999994" fill="url(#m-wood)" fill-opacity="1" pointer-events="none"/><polygon class="room" data-room="room-1" points="152.4,152.4 3251.2,152.4 3251.2,762 152.4,762" fill="url(#m-wood)" fill-opacity="1"/><polygon class="room" data-room="room-fmuqkq7bv1" points="152.4,863.6 3251.2,863.6 3251.2,3860.8 152.4,3860.8" fill="url(#m-wood)" fill-opacity="1"/><polygon class="room" data-room="room-fmuqkq7q32" points="3352.8,152.4 5181.6,152.4 5181.6,3048 3352.8,3048" fill="url(#m-wood)" fill-opacity="1"/><polygon class="room" data-room="room-fmuqkq7vd3" points="5334,152.4 6273.8,152.4 6273.8,1117.6000000000001 5334,1117.6000000000001" fill="url(#m-wood)" fill-opacity="1"/><polygon class="room" data-room="room-fmuqkq80x4" points="6375.4,152.4 8559.8,152.4 8559.8,3048 5334,3048 5334,1219.2 6375.4,1219.2" fill="url(#m-wood)" fill-opacity="1"/><polygon class="room" data-room="room-fmuqkq8kd5" points="3251.2,3149.6000000000004 6400.8,3149.6000000000004 6400.8,6248.4 152.4,6248.4 152.4,3860.8 3251.2,3860.8" fill="url(#m-wood)" fill-opacity="1"/><polygon class="room" data-room="room-fmuqkq8x96" points="6400.8,3149.6000000000004 8559.8,3149.6000000000004 8559.8,6248.4 6400.8,6248.4" fill="url(#m-wood)" fill-opacity="1"/><rect x="3251.2" y="2082.8" width="101.60000000000036" height="914.4000000000001" fill="#e2dacb" stroke="#b9b0a0" stroke-width="1" vector-effect="non-scaling-stroke" pointer-events="none"/><rect x="5485.4" y="6248.4" width="914.3999999999996" height="152.40000000000055" fill="#e2dacb" stroke="#b9b0a0" stroke-width="1" vector-effect="non-scaling-stroke" pointer-events="none"/><rect x="482.6" y="762" width="2438.4" height="101.60000000000002" fill="#e2dacb" stroke="#b9b0a0" stroke-width="1" vector-effect="non-scaling-stroke" pointer-events="none"/><rect x="5334" y="1117.6000000000001" width="914.3999999999996" height="101.59999999999991" fill="#e2dacb" stroke="#b9b0a0" stroke-width="1" vector-effect="non-scaling-stroke" pointer-events="none"/></g>
      <g id="gFurn" display="inline"><g class="furn" data-fid="fmuqkqagp17" aria-label="Bath shower 72x30 in" transform="translate(4267.2 533.4) rotate(0)"><title>Bath shower 72x30 in</title><rect x="-914.4000000000001" y="-381" width="1828.8000000000002" height="762" fill="#e4edf2" stroke="#3d3a34" stroke-width="1" vector-effect="non-scaling-stroke"/><line x1="-914.4000000000001" y1="-381" x2="914.4000000000001" y2="381" stroke="#3d3a34" stroke-width="1" vector-effect="non-scaling-stroke" stroke-dasharray="4 3"/><line x1="914.4000000000001" y1="-381" x2="-914.4000000000001" y2="381" stroke="#3d3a34" stroke-width="1" vector-effect="non-scaling-stroke" stroke-dasharray="4 3"/><circle r="45" fill="#fff" stroke="#3d3a34" stroke-width="1" vector-effect="non-scaling-stroke"/><text data-furniture-label="" transform="rotate(0) scale(1)" font-size="140" text-anchor="middle" dominant-baseline="central" fill="#4a443c" opacity=".8" pointer-events="none"><tspan x="0" y="-168">Bath</tspan><tspan x="0" y="0">shower</tspan><tspan x="0" y="168">72x30…</tspan></text></g><g class="furn" data-fid="fmuqkqaoj18" aria-label="Bath vanity" transform="translate(4953 1524) rotate(0)"><title>Bath vanity</title><rect x="-228.60000000000002" y="-381" width="457.20000000000005" height="762" fill="#eef1f3" stroke="#3d3a34" stroke-width="1" vector-effect="non-scaling-stroke" rx="20"/><ellipse cx="0" cy="53.339999999999975" rx="146.30400000000003" ry="213.36" fill="#fff" stroke="#3d3a34" stroke-width="1" vector-effect="non-scaling-stroke"/><circle cx="0" cy="-251.45999999999998" r="26" fill="#999"/><text data-furniture-label="" transform="rotate(0) scale(1)" font-size="91.44000000000001" text-anchor="middle" dominant-baseline="central" fill="#4a443c" opacity=".8" pointer-events="none"><tspan x="0" y="-54.864000000000004">Bath</tspan><tspan x="0" y="54.864000000000004">vanity</tspan></text></g><g class="furn" data-fid="fmuqkqaxt19" aria-label="Bath toilet" transform="translate(4800.6 2590.8) rotate(0)"><title>Bath toilet</title><rect x="-210.312" y="-381" width="420.6240000000001" height="205.74" fill="#ffffff" stroke="#3d3a34" stroke-width="1" vector-effect="non-scaling-stroke" rx="30"/><ellipse cx="0" cy="99.06" rx="214.88400000000001" ry="274.32" fill="#ffffff" stroke="#3d3a34" stroke-width="1" vector-effect="non-scaling-stroke"/><ellipse cx="0" cy="129.54000000000002" rx="137.16" ry="182.88" fill="#eef4f7" stroke="#3d3a34" stroke-width="1" vector-effect="non-scaling-stroke"/><text data-furniture-label="" transform="rotate(0) scale(1)" font-size="91.44000000000001" text-anchor="middle" dominant-baseline="central" fill="#4a443c" opacity=".8" pointer-events="none"><tspan x="0" y="-54.864000000000004">Bath</tspan><tspan x="0" y="54.864000000000004">toilet</tspan></text></g><g class="furn" data-fid="fmuqkqb5o20" aria-label="Stacked washer dryer" transform="translate(5791.2 609.6) rotate(0)"><title>Stacked washer dryer</title><rect x="-381" y="-381" width="762" height="762" fill="#e6ebee" stroke="#3d3a34" stroke-width="1" vector-effect="non-scaling-stroke" rx="30"/><rect x="-381" y="-381" width="762" height="106.68" fill="#cfd4d6" stroke="#3d3a34" stroke-width="1" vector-effect="non-scaling-stroke"/><circle cy="45.72" r="259.08000000000004" fill="#fff" stroke="#3d3a34" stroke-width="1" vector-effect="non-scaling-stroke"/><circle cy="45.72" r="182.88" fill="#cfdde4" stroke="#3d3a34" stroke-width="1" vector-effect="non-scaling-stroke"/><text data-furniture-label="" transform="rotate(0) scale(1)" font-size="140" text-anchor="middle" dominant-baseline="central" fill="#4a443c" opacity=".8" pointer-events="none"><tspan x="0" y="-168">Stacked</tspan><tspan x="0" y="0">washer</tspan><tspan x="0" y="168">dryer</tspan></text></g><g class="furn" data-fid="fmuqkqbdz21" aria-label="Kitchen refrigerator" transform="translate(6781.8 609.6) rotate(0)"><title>Kitchen refrigerator</title><rect x="-381" y="-457.20000000000005" width="762" height="914.4000000000001" fill="#dfe4e8" stroke="#3d3a34" stroke-width="1" vector-effect="non-scaling-stroke" rx="30"/><line x1="-381" y1="-329.184" x2="381" y2="-329.184" stroke="#3d3a34" stroke-width="1" vector-effect="non-scaling-stroke"/><line x1="0" y1="-329.184" x2="0" y2="457.20000000000005" stroke="#3d3a34" stroke-width="1" vector-effect="non-scaling-stroke"/><rect x="-70" y="0" width="40" height="228.60000000000002" fill="#aab" stroke="#3d3a34" stroke-width="1" vector-effect="non-scaling-stroke"/><rect x="30" y="0" width="40" height="228.60000000000002" fill="#aab" stroke="#3d3a34" stroke-width="1" vector-effect="non-scaling-stroke"/><text data-furniture-label="" transform="rotate(0) scale(1)" font-size="140" text-anchor="middle" dominant-baseline="central" fill="#4a443c" opacity=".8" pointer-events="none"><tspan x="0" y="-84">Kitchen</tspan><tspan x="0" y="84">refri…</tspan></text></g><g class="furn" data-fid="fmuqkqbmr22" aria-label="Kitchen stove" transform="translate(8001 457.20000000000005) rotate(0)"><title>Kitchen stove</title><rect x="-381" y="-304.8" width="762" height="609.6" fill="#2f2f2f" stroke="#3d3a34" stroke-width="1" vector-effect="non-scaling-stroke" rx="20"/><circle cx="-190.5" cy="-152.4" r="158.496" fill="none" stroke="#bbb" stroke-width="1" vector-effect="non-scaling-stroke"/><circle cx="-190.5" cy="-152.4" r="71.3232" fill="#666"/><circle cx="190.5" cy="-152.4" r="158.496" fill="none" stroke="#bbb" stroke-width="1" vector-effect="non-scaling-stroke"/><circle cx="190.5" cy="-152.4" r="71.3232" fill="#666"/><circle cx="-190.5" cy="152.4" r="158.496" fill="none" stroke="#bbb" stroke-width="1" vector-effect="non-scaling-stroke"/><circle cx="-190.5" cy="152.4" r="71.3232" fill="#666"/><circle cx="190.5" cy="152.4" r="158.496" fill="none" stroke="#bbb" stroke-width="1" vector-effect="non-scaling-stroke"/><circle cx="190.5" cy="152.4" r="71.3232" fill="#666"/><text data-furniture-label="" transform="rotate(0) scale(1)" font-size="121.92000000000002" text-anchor="middle" dominant-baseline="central" fill="#4a443c" opacity=".8" pointer-events="none"><tspan x="0" y="-73.152">Kitch…</tspan><tspan x="0" y="73.152">stove…</tspan></text></g><g class="furn" data-fid="fmuqkqbu723" aria-label="Kitchen south counter" transform="translate(7498.080000000001 2667) rotate(0)"><title>Kitchen south counter</title><rect x="-990.6" y="-381" width="1981.2" height="762" fill="#e9e5de" stroke="#3d3a34" stroke-width="1" vector-effect="non-scaling-stroke"/><line x1="-990.6" y1="341" x2="990.6" y2="341" stroke="#3d3a34" stroke-width="1" vector-effect="non-scaling-stroke" stroke-dasharray="4 3"/><text data-furniture-label="" transform="rotate(0) scale(1)" font-size="140" text-anchor="middle" dominant-baseline="central" fill="#4a443c" opacity=".8" pointer-events="none"><tspan x="0" y="-168">Kitchen</tspan><tspan x="0" y="0">south</tspan><tspan x="0" y="168">counter</tspan></text></g><g class="furn" data-fid="fmuqkqc1m24" aria-label="Kitchen sink" transform="translate(7848.6 2743.2000000000003) rotate(0)"><title>Kitchen sink</title><rect x="-381" y="-304.8" width="762" height="609.6" fill="#e1e6ea" stroke="#3d3a34" stroke-width="1" vector-effect="non-scaling-stroke" rx="20"/><rect x="-335.28" y="-195.072" width="320.03999999999996" height="402.336" fill="#fff" stroke="#3d3a34" stroke-width="1" vector-effect="non-scaling-stroke" rx="50"/><rect x="15.240000000000009" y="-195.072" width="320.03999999999996" height="402.336" fill="#fff" stroke="#3d3a34" stroke-width="1" vector-effect="non-scaling-stroke" rx="50"/><circle cx="0" cy="-249.936" r="22" fill="#999"/><text data-furniture-label="" transform="rotate(0) scale(1)" font-size="121.92000000000002" text-anchor="middle" dominant-baseline="central" fill="#4a443c" opacity=".8" pointer-events="none"><tspan x="0" y="-73.152">Kitch…</tspan><tspan x="0" y="73.152">sink…</tspan></text></g><g class="furn" data-fid="fmuqkqcaz25" aria-label="Closet storage" transform="translate(1676.4 457.20000000000005) rotate(0)"><title>Closet storage</title><rect x="-1371.6000000000001" y="-228.60000000000002" width="2743.2000000000003" height="457.20000000000005" fill="#efe6d8" stroke="#3d3a34" stroke-width="1" vector-effect="non-scaling-stroke"/><line x1="-1321.6000000000001" y1="0" x2="1321.6000000000001" y2="0" stroke="#3d3a34" stroke-width="1" vector-effect="non-scaling-stroke"/><line x1="-1256.6000000000001" y1="-128.01600000000002" x2="-1166.6000000000001" y2="128.01600000000002" stroke="#3d3a34" stroke-width="1" vector-effect="non-scaling-stroke" opacity=".6"/><line x1="-1076.6000000000001" y1="-128.01600000000002" x2="-986.6000000000001" y2="128.01600000000002" stroke="#3d3a34" stroke-width="1" vector-effect="non-scaling-stroke" opacity=".6"/><line x1="-896.6000000000001" y1="-128.01600000000002" x2="-806.6000000000001" y2="128.01600000000002" stroke="#3d3a34" stroke-width="1" vector-effect="non-scaling-stroke" opacity=".6"/><line x1="-716.6000000000001" y1="-128.01600000000002" x2="-626.6000000000001" y2="128.01600000000002" stroke="#3d3a34" stroke-width="1" vector-effect="non-scaling-stroke" opacity=".6"/><line x1="-536.6000000000001" y1="-128.01600000000002" x2="-446.60000000000014" y2="128.01600000000002" stroke="#3d3a34" stroke-width="1" vector-effect="non-scaling-stroke" opacity=".6"/><line x1="-356.60000000000014" y1="-128.01600000000002" x2="-266.60000000000014" y2="128.01600000000002" stroke="#3d3a34" stroke-width="1" vector-effect="non-scaling-stroke" opacity=".6"/><line x1="-176.60000000000014" y1="-128.01600000000002" x2="-86.60000000000014" y2="128.01600000000002" stroke="#3d3a34" stroke-width="1" vector-effect="non-scaling-stroke" opacity=".6"/><line x1="3.3999999999998636" y1="-128.01600000000002" x2="93.39999999999986" y2="128.01600000000002" stroke="#3d3a34" stroke-width="1" vector-effect="non-scaling-stroke" opacity=".6"/><line x1="183.39999999999986" y1="-128.01600000000002" x2="273.39999999999986" y2="128.01600000000002" stroke="#3d3a34" stroke-width="1" vector-effect="non-scaling-stroke" opacity=".6"/><line x1="363.39999999999986" y1="-128.01600000000002" x2="453.39999999999986" y2="128.01600000000002" stroke="#3d3a34" stroke-width="1" vector-effect="non-scaling-stroke" opacity=".6"/><line x1="543.3999999999999" y1="-128.01600000000002" x2="633.3999999999999" y2="128.01600000000002" stroke="#3d3a34" stroke-width="1" vector-effect="non-scaling-stroke" opacity=".6"/><line x1="723.3999999999999" y1="-128.01600000000002" x2="813.3999999999999" y2="128.01600000000002" stroke="#3d3a34" stroke-width="1" vector-effect="non-scaling-stroke" opacity=".6"/><line x1="903.3999999999999" y1="-128.01600000000002" x2="993.3999999999999" y2="128.01600000000002" stroke="#3d3a34" stroke-width="1" vector-effect="non-scaling-stroke" opacity=".6"/><line x1="1083.3999999999999" y1="-128.01600000000002" x2="1173.3999999999999" y2="128.01600000000002" stroke="#3d3a34" stroke-width="1" vector-effect="non-scaling-stroke" opacity=".6"/><text data-furniture-label="" transform="rotate(0) scale(1)" font-size="91.44000000000001" text-anchor="middle" dominant-baseline="central" fill="#4a443c" opacity=".8" pointer-events="none"><tspan x="0" y="-54.864000000000004">Closet</tspan><tspan x="0" y="54.864000000000004">stora…</tspan></text></g><g class="furn" data-fid="fmuqkqcjf26" aria-label="Queen in Bedroom" transform="translate(1676.4 2362.2000000000003) rotate(0)"><title>Queen in Bedroom</title><rect x="-762" y="-1016.0000000000001" width="1524" height="2032.0000000000002" fill="#fbf8f2" stroke="#3d3a34" stroke-width="1" vector-effect="non-scaling-stroke" rx="30"/><rect x="-762" y="-1016.0000000000001" width="1524" height="90" fill="#7d858a" stroke="#3d3a34" stroke-width="1" vector-effect="non-scaling-stroke" rx="20"/><rect x="-682" y="-866.0000000000001" width="642" height="360" fill="#fff" stroke="#3d3a34" stroke-width="1" vector-effect="non-scaling-stroke" rx="70"/><rect x="40" y="-866.0000000000001" width="642" height="360" fill="#fff" stroke="#3d3a34" stroke-width="1" vector-effect="non-scaling-stroke" rx="70"/><rect x="-747" y="-396.0000000000001" width="1494" height="1397.0000000000002" fill="#c9d6df" stroke="#3d3a34" stroke-width="1" vector-effect="non-scaling-stroke" rx="40"/><path d="M-747 -96.00000000000011H747" fill="none" stroke="#3d3a34" stroke-width="1" vector-effect="non-scaling-stroke" stroke-dasharray="4 3"/><path d="M327 -396.0000000000001L747 -396.0000000000001L747 23.999999999999886Z" fill="#d6e0e7" stroke="#3d3a34" stroke-width="1" vector-effect="non-scaling-stroke"/><text data-furniture-label="" transform="rotate(0) scale(1)" font-size="140" text-anchor="middle" dominant-baseline="central" fill="#4a443c" opacity=".8" pointer-events="none"><tspan x="0" y="-84">Queen in</tspan><tspan x="0" y="84">Bedroom</tspan></text></g><g class="furn" data-fid="fmuqkqcsp27" aria-label="Living sofa" transform="translate(3962.4 5760.719999999999) rotate(0)"><title>Living sofa</title><rect x="-1219.2" y="-457.20000000000005" width="2438.4" height="914.4000000000001" fill="#9ca796" stroke="#3d3a34" stroke-width="1" vector-effect="non-scaling-stroke" rx="60"/><rect x="-1019.2" y="-237.74400000000003" width="679.4666666666667" height="654.9440000000001" fill="#b7c4b0" stroke="#3d3a34" stroke-width="1" vector-effect="non-scaling-stroke" rx="40"/><rect x="-339.73333333333335" y="-237.74400000000003" width="679.4666666666667" height="654.9440000000001" fill="#b7c4b0" stroke="#3d3a34" stroke-width="1" vector-effect="non-scaling-stroke" rx="40"/><rect x="339.73333333333335" y="-237.74400000000003" width="679.4666666666667" height="654.9440000000001" fill="#b7c4b0" stroke="#3d3a34" stroke-width="1" vector-effect="non-scaling-stroke" rx="40"/><rect x="-1219.2" y="-457.20000000000005" width="2438.4" height="219.45600000000002" fill="#9ca796" stroke="#3d3a34" stroke-width="1" vector-effect="non-scaling-stroke" rx="50"/><rect x="-1219.2" y="-457.20000000000005" width="200" height="914.4000000000001" fill="#9ca796" stroke="#3d3a34" stroke-width="1" vector-effect="non-scaling-stroke" rx="50"/><rect x="1019.2" y="-457.20000000000005" width="200" height="914.4000000000001" fill="#9ca796" stroke="#3d3a34" stroke-width="1" vector-effect="non-scaling-stroke" rx="50"/><text data-furniture-label="" transform="rotate(0) scale(1)" font-size="140" text-anchor="middle" dominant-baseline="central" fill="#4a443c" opacity=".8" pointer-events="none"><tspan x="0" y="-84">Living</tspan><tspan x="0" y="84">sofa</tspan></text></g><g class="furn" data-fid="fmuqkqd2a28" aria-label="Dining table" transform="translate(7467.6 5181.6) rotate(0)"><title>Dining table</title><rect x="-762" y="-457.20000000000005" width="1524" height="914.4000000000001" fill="#e2cfb4" stroke="#3d3a34" stroke-width="1" vector-effect="non-scaling-stroke" rx="30"/><rect x="-712" y="-407.20000000000005" width="1424" height="814.4000000000001" fill="none" stroke="#3d3a34" stroke-width="1" vector-effect="non-scaling-stroke" rx="20" opacity=".4"/><text data-furniture-label="" transform="rotate(0) scale(1)" font-size="140" text-anchor="middle" dominant-baseline="central" fill="#4a443c" opacity=".8" pointer-events="none"><tspan x="0" y="-84">Dining</tspan><tspan x="0" y="84">table</tspan></text></g></g>
      <g id="gWalls"><rect class="wall" data-wall="room-1--top" style="pointer-events:all;cursor:pointer" x="2.842170943040401e-14" y="2.842170943040401e-14" width="3352.7999999999997" height="152.39999999999998" fill="#a7a195"/><rect class="wall" data-wall="room-1--right" style="pointer-events:all;cursor:pointer" x="3251.2" y="152.4" width="101.59999999999991" height="609.6" fill="#a7a195"/><rect class="wall" data-wall="room-1--bottom" style="pointer-events:all;cursor:pointer" x="2.842170943040401e-14" y="762" width="482.6" height="101.60000000000002" fill="#a7a195"/><rect class="wall" data-wall="room-1--bottom" style="pointer-events:all;cursor:pointer" x="2921" y="762" width="431.7999999999997" height="101.60000000000002" fill="#a7a195"/><rect class="wall" data-wall="room-1--left" style="pointer-events:all;cursor:pointer" x="2.842170943040401e-14" y="152.4" width="152.39999999999998" height="609.6" fill="#a7a195"/><rect class="wall" data-wall="room-fmuqkq7bv1--right" style="pointer-events:all;cursor:pointer" x="3251.2" y="863.6" width="101.59999999999991" height="1219.2000000000003" fill="#a7a195"/><rect class="wall" data-wall="room-fmuqkq7bv1--right" style="pointer-events:all;cursor:pointer" x="3251.2" y="2997.2000000000003" width="101.59999999999991" height="152.39999999999964" fill="#a7a195"/><rect class="wall" data-wall="room-fmuqkq7bv1--left" style="pointer-events:all;cursor:pointer" x="2.842170943040401e-14" y="863.6" width="152.39999999999998" height="2794.0000000000005" fill="#a7a195"/><rect class="wall" data-wall="room-fmuqkq7q32--top" style="pointer-events:all;cursor:pointer" x="3352.7999999999997" y="2.842170943040401e-14" width="457.2000000000003" height="152.39999999999998" fill="#a7a195"/><rect class="wall" data-wall="room-fmuqkq7q32--top" style="pointer-events:all;cursor:pointer" x="4724.400000000001" y="2.842170943040401e-14" width="609.5999999999995" height="152.39999999999998" fill="#a7a195"/><rect class="wall" data-wall="room-fmuqkq7q32--right" style="pointer-events:all;cursor:pointer" x="5181.6" y="152.4" width="152.39999999999964" height="2895.6" fill="#a7a195"/><rect class="wall" data-wall="room-fmuqkq7q32--bottom" style="pointer-events:all;cursor:pointer" x="3352.7999999999997" y="3048" width="1981.2000000000003" height="101.59999999999991" fill="#a7a195"/><rect class="wall" data-wall="room-fmuqkq7vd3--top" style="pointer-events:all;cursor:pointer" x="5334" y="2.842170943040401e-14" width="1041.3999999999996" height="152.39999999999998" fill="#a7a195"/><rect class="wall" data-wall="room-fmuqkq7vd3--right" style="pointer-events:all;cursor:pointer" x="6273.8" y="152.4" width="101.59999999999945" height="965.2000000000002" fill="#a7a195"/><rect class="wall" data-wall="room-fmuqkq7vd3--bottom" style="pointer-events:all;cursor:pointer" x="6248.4" y="1117.6000000000001" width="127" height="101.59999999999991" fill="#a7a195"/><rect class="wall" data-wall="room-fmuqkq80x4--top" style="pointer-events:all;cursor:pointer" x="6375.4" y="2.842170943040401e-14" width="2336.800000000001" height="152.39999999999998" fill="#a7a195"/><rect class="wall" data-wall="room-fmuqkq80x4--right" style="pointer-events:all;cursor:pointer" x="8559.8" y="152.4" width="152.40000000000146" height="1066.8" fill="#a7a195"/><rect class="wall" data-wall="room-fmuqkq80x4--right" style="pointer-events:all;cursor:pointer" x="8559.8" y="2133.6" width="152.40000000000146" height="914.4000000000001" fill="#a7a195"/><rect class="wall" data-wall="room-fmuqkq8kd5--bottom" style="pointer-events:all;cursor:pointer" x="2.842170943040401e-14" y="6248.4" width="1219.2" height="152.40000000000055" fill="#a7a195"/><rect class="wall" data-wall="room-fmuqkq8kd5--bottom" style="pointer-events:all;cursor:pointer" x="2438.4" y="6248.4" width="3046.9999999999995" height="152.40000000000055" fill="#a7a195"/><rect class="wall" data-wall="room-fmuqkq8kd5--bottom" style="pointer-events:all;cursor:pointer" x="6399.799999999999" y="6248.4" width="1.0000000000009095" height="152.40000000000055" fill="#a7a195"/><rect class="wall" data-wall="room-fmuqkq8kd5--left" style="pointer-events:all;cursor:pointer" x="2.842170943040401e-14" y="4876.8" width="152.39999999999998" height="1371.5999999999995" fill="#a7a195"/><rect class="wall" data-wall="room-fmuqkq8x96--right" style="pointer-events:all;cursor:pointer" x="8559.8" y="3149.6000000000004" width="152.40000000000146" height="203.20000000000027" fill="#a7a195"/><rect class="wall" data-wall="room-fmuqkq8x96--right" style="pointer-events:all;cursor:pointer" x="8559.8" y="4572" width="152.40000000000146" height="1676.3999999999996" fill="#a7a195"/><rect class="wall" data-wall="room-fmuqkq8x96--bottom" style="pointer-events:all;cursor:pointer" x="6400.8" y="6248.4" width="482.60000000000036" height="152.40000000000055" fill="#a7a195"/><rect class="wall" data-wall="room-fmuqkq8x96--bottom" style="pointer-events:all;cursor:pointer" x="7493" y="6248.4" width="1219.2000000000007" height="152.40000000000055" fill="#a7a195"/><rect class="wall" data-wall="room-fmuqkq80x4--bottom" style="pointer-events:all;cursor:pointer" x="6426.2" y="3048" width="2286.000000000001" height="101.59999999999991" fill="#e9e3d8" stroke="#8f897d" stroke-width="1" vector-effect="non-scaling-stroke"/></g>
      <g id="gObstacles"/>
      <g id="gOpen"><g data-opening="opening-fmuqkq9pl11" style="cursor:pointer"><rect x="3810" y="2.842170943040401e-14" width="914.4000000000005" height="152.39999999999998" fill="#f7fbfd" stroke="#4f7394" stroke-width="1" vector-effect="non-scaling-stroke"/><line x1="3810" y1="50.80000000000002" x2="4724.400000000001" y2="50.80000000000002" stroke="#4f7394" stroke-width="1" vector-effect="non-scaling-stroke"/><line x1="3810" y1="101.60000000000001" x2="4724.400000000001" y2="101.60000000000001" stroke="#4f7394" stroke-width="1" vector-effect="non-scaling-stroke"/></g><g data-opening="opening-fmuqkq9u512" style="cursor:pointer"><rect x="8559.8" y="1219.2" width="152.40000000000146" height="914.3999999999999" fill="#f7fbfd" stroke="#4f7394" stroke-width="1" vector-effect="non-scaling-stroke"/><line x1="8610.6" y1="1219.2" x2="8610.6" y2="2133.6" stroke="#4f7394" stroke-width="1" vector-effect="non-scaling-stroke"/><line x1="8661.4" y1="1219.2" x2="8661.4" y2="2133.6" stroke="#4f7394" stroke-width="1" vector-effect="non-scaling-stroke"/></g><g data-opening="opening-fmuqkqa7w15" style="cursor:pointer"><rect x="1219.2" y="6248.4" width="1219.2" height="152.40000000000055" fill="#f7fbfd" stroke="#4f7394" stroke-width="1" vector-effect="non-scaling-stroke"/><line x1="1219.2" y1="6299.2" x2="2438.4" y2="6299.2" stroke="#4f7394" stroke-width="1" vector-effect="non-scaling-stroke"/><line x1="1219.2" y1="6350" x2="2438.4" y2="6350" stroke="#4f7394" stroke-width="1" vector-effect="non-scaling-stroke"/></g><g data-opening="opening-fmuqkqa3914" style="cursor:pointer"><rect x="2.842170943040401e-14" y="3657.6000000000004" width="152.39999999999998" height="1219.1999999999998" fill="#f7fbfd" stroke="#4f7394" stroke-width="1" vector-effect="non-scaling-stroke"/><line x1="50.80000000000002" y1="3657.6000000000004" x2="50.80000000000002" y2="4876.8" stroke="#4f7394" stroke-width="1" vector-effect="non-scaling-stroke"/><line x1="101.60000000000001" y1="3657.6000000000004" x2="101.60000000000001" y2="4876.8" stroke="#4f7394" stroke-width="1" vector-effect="non-scaling-stroke"/></g><g data-opening="opening-fmuqkq9yo13" style="cursor:pointer"><rect x="8559.8" y="3352.8000000000006" width="152.40000000000146" height="1219.1999999999994" fill="#f7fbfd" stroke="#4f7394" stroke-width="1" vector-effect="non-scaling-stroke"/><line x1="8610.6" y1="3352.8000000000006" x2="8610.6" y2="4572" stroke="#4f7394" stroke-width="1" vector-effect="non-scaling-stroke"/><line x1="8661.4" y1="3352.8000000000006" x2="8661.4" y2="4572" stroke="#4f7394" stroke-width="1" vector-effect="non-scaling-stroke"/></g><g data-opening="opening-fmuqkqacl16" style="cursor:pointer"><rect x="6883.400000000001" y="6248.4" width="609.5999999999995" height="152.40000000000055" fill="#f7fbfd" stroke="#4f7394" stroke-width="1" vector-effect="non-scaling-stroke"/><line x1="6883.400000000001" y1="6299.2" x2="7493" y2="6299.2" stroke="#4f7394" stroke-width="1" vector-effect="non-scaling-stroke"/><line x1="6883.400000000001" y1="6350" x2="7493" y2="6350" stroke="#4f7394" stroke-width="1" vector-effect="non-scaling-stroke"/></g><g data-opening="opening-fmuqkq9c68" style="cursor:pointer"><rect x="3251.2" y="2082.8" width="101.60000000000036" height="914.4000000000001" fill="transparent"/><polygon points="3352.8,2997.2000000000003 4267.2,2997.2000000000003 4267.2,2957.2000000000003 3352.8,2957.2000000000003" fill="#fff" stroke="#3d3a34" stroke-width="1" vector-effect="non-scaling-stroke"/><path d="M4267.2 2997.2000000000003A914.4 914.4 0 0 0 3352.8 2082.8" fill="none" stroke="#3d3a34" stroke-width="1" vector-effect="non-scaling-stroke" stroke-dasharray="5 3" opacity=".7"/></g><g data-opening="opening-fmuqkq96u7" style="cursor:pointer"><rect x="5485.4" y="6248.4" width="914.3999999999996" height="152.40000000000055" fill="transparent"/><polygon points="6399.799999999999,6248.4 6399.799999999999,5334 6359.799999999999,5334 6359.799999999999,6248.4" fill="#fff" stroke="#3d3a34" stroke-width="1" vector-effect="non-scaling-stroke"/><path d="M6399.799999999999 5334A914.4 914.4 0 0 0 5485.4 6248.4" fill="none" stroke="#3d3a34" stroke-width="1" vector-effect="non-scaling-stroke" stroke-dasharray="5 3" opacity=".7"/></g><g data-opening="opening-fmuqkq9kz10" style="cursor:pointer"><rect x="482.6" y="762" width="2438.4" height="101.60000000000002" fill="transparent"/><rect x="482.6" y="767.8" width="1341.1200000000001" height="40" fill="#fff" stroke="#3d3a34" stroke-width="1" vector-effect="non-scaling-stroke"/><rect x="1579.8799999999999" y="817.8" width="1341.1200000000001" height="40" fill="#fff" stroke="#3d3a34" stroke-width="1" vector-effect="non-scaling-stroke"/></g><g data-opening="opening-fmuqkq9g39" style="cursor:pointer"><rect x="5334" y="1117.6000000000001" width="914.3999999999996" height="101.59999999999991" fill="transparent"/><polyline points="5334,1117.6000000000001 5388.864,1337.056 5443.728,1117.6000000000001" fill="none" stroke="#3d3a34" stroke-width="1" vector-effect="non-scaling-stroke"/><polyline points="6248.4,1117.6000000000001 6193.536,1337.056 6138.672,1117.6000000000001" fill="none" stroke="#3d3a34" stroke-width="1" vector-effect="non-scaling-stroke"/></g></g>
      <g id="gWarnings" pointer-events="none"/><g id="gPassage" pointer-events="none"/><g id="gUseZones" pointer-events="none"><polygon data-use-zone="uz-b5a72f45-64c3-43f7-bab6-27d1d2b10dac" data-zone-status="conflict" points="5582.638272,-371.4 6199.7617279999995,-371.4 6199.7617279999995,228.60000000000002 5582.638272,228.60000000000002" fill="#d34a32" fill-opacity="0.13" stroke="#d34a32" stroke-width="2" stroke-dasharray="6 4" vector-effect="non-scaling-stroke"/><polygon data-use-zone="uz-49801ecd-3d89-4b99-8c11-9027d67352e8" data-zone-status="conflict" points="3048,248.63827200000003 3648,248.63827200000003 3648,865.7617280000001 3048,865.7617280000001" fill="#d34a32" fill-opacity="0.13" stroke="#d34a32" stroke-width="2" stroke-dasharray="6 4" vector-effect="non-scaling-stroke"/><polygon data-use-zone="uz-db1eb1d8-65d2-4628-847e-d4e669648e55" data-zone-status="clear" points="314.4000000000001,2153.638272 914.4000000000001,2153.638272 914.4000000000001,2770.7617280000004 314.4000000000001,2770.7617280000004" fill="#168468" fill-opacity="0.13" stroke="#168468" stroke-width="2" stroke-dasharray="6 4" vector-effect="non-scaling-stroke"/><polygon data-use-zone="uz-9849b2a7-fab8-41ed-9048-03fab9efcd14" data-zone-status="clear" points="2438.4,2062.2000000000003 3038.4,2062.2000000000003 3038.4,2662.2000000000003 2438.4,2662.2000000000003" fill="#168468" fill-opacity="0.13" stroke="#168468" stroke-width="2" stroke-dasharray="6 4" vector-effect="non-scaling-stroke"/><polygon data-use-zone="uz-832ebfef-729d-41d5-ad68-7c15729ba083" data-zone-status="conflict" points="3753.838272,6217.919999999999 4370.961728,6217.919999999999 4370.961728,6817.919999999999 3753.838272,6817.919999999999" fill="#d34a32" fill-opacity="0.13" stroke="#d34a32" stroke-width="2" stroke-dasharray="6 4" vector-effect="non-scaling-stroke"/></g>
      <g id="gLabels" pointer-events="none" display="inline"><g data-label-room="room-1"><text x="2502.0226666666663" y="463.29600000000005" font-size="121.92000000000002" font-weight="600" text-anchor="middle" fill="#2b2824" stroke="#fbf9f4" stroke-width="35" paint-order="stroke" stroke-linejoin="round">Bedroom closet</text><text x="2502.0226666666663" y="585.2160000000001" font-size="85.34400000000001" text-anchor="middle" fill="#7d7366" stroke="#fbf9f4" stroke-width="35" paint-order="stroke" stroke-linejoin="round">20.33 sq ft</text></g><g data-label-room="room-fmuqkq7bv1"><text x="1701.8" y="1754.15" font-size="250" font-weight="600" text-anchor="middle" fill="#2b2824" stroke="#fbf9f4" stroke-width="35" paint-order="stroke" stroke-linejoin="round">Bedroom</text><text x="1701.8" y="2004.15" font-size="175" text-anchor="middle" fill="#7d7366" stroke="#fbf9f4" stroke-width="35" paint-order="stroke" stroke-linejoin="round">99.97 sq ft</text></g><g data-label-room="room-fmuqkq7q32"><text x="4009.55" y="1612.6999999999998" font-size="250" font-weight="600" text-anchor="middle" fill="#2b2824" stroke="#fbf9f4" stroke-width="35" paint-order="stroke" stroke-linejoin="round">Bath</text><text x="4009.55" y="1862.6999999999998" font-size="175" text-anchor="middle" fill="#7d7366" stroke="#fbf9f4" stroke-width="35" paint-order="stroke" stroke-linejoin="round">57.00 sq ft</text></g><g data-label-room="room-fmuqkq7vd3"><text x="5803.9" y="635.0000000000001" font-size="173.2350230414747" font-weight="600" text-anchor="middle" fill="#2b2824" stroke="#fbf9f4" stroke-width="35" paint-order="stroke" stroke-linejoin="round">Laundry</text><text x="5803.9" y="808.2350230414748" font-size="121.26451612903229" text-anchor="middle" fill="#7d7366" stroke="#fbf9f4" stroke-width="35" paint-order="stroke" stroke-linejoin="round">9.76 sq ft</text></g><g data-label-room="room-fmuqkq80x4"><text x="7467.599999999999" y="1600.2" font-size="250" font-weight="600" text-anchor="middle" fill="#2b2824" stroke="#fbf9f4" stroke-width="35" paint-order="stroke" stroke-linejoin="round">Kitchen</text><text x="7467.599999999999" y="1850.2" font-size="175" text-anchor="middle" fill="#7d7366" stroke="#fbf9f4" stroke-width="35" paint-order="stroke" stroke-linejoin="round">88.58 sq ft</text></g><g data-label-room="room-fmuqkq8kd5"><text x="4826" y="4699" font-size="250" font-weight="600" text-anchor="middle" fill="#2b2824" stroke="#fbf9f4" stroke-width="35" paint-order="stroke" stroke-linejoin="round">Living</text><text x="4826" y="4949" font-size="175" text-anchor="middle" fill="#7d7366" stroke="#fbf9f4" stroke-width="35" paint-order="stroke" stroke-linejoin="round">184.69 sq ft</text></g><g data-label-room="room-fmuqkq8x96"><text x="7480.299999999999" y="4280.866666666667" font-size="250" font-weight="600" text-anchor="middle" fill="#2b2824" stroke="#fbf9f4" stroke-width="35" paint-order="stroke" stroke-linejoin="round">Dining</text><text x="7480.299999999999" y="4530.866666666667" font-size="175" text-anchor="middle" fill="#7d7366" stroke="#fbf9f4" stroke-width="35" paint-order="stroke" stroke-linejoin="round">72.01 sq ft</text></g></g>
      <g id="gDims" pointer-events="none" display="inline"><line x1="152.4" y1="-300" x2="3251.2" y2="-300" stroke="#7d7160" stroke-width="1" vector-effect="non-scaling-stroke"/><line x1="152.4" y1="-470" x2="152.4" y2="-130" stroke="#7d7160" stroke-width="1" vector-effect="non-scaling-stroke"/><line x1="72.4" y1="-220" x2="232.4" y2="-380" stroke="#7d7160" stroke-width="2" vector-effect="non-scaling-stroke"/><line x1="3251.2" y1="-470" x2="3251.2" y2="-130" stroke="#7d7160" stroke-width="1" vector-effect="non-scaling-stroke"/><line x1="3171.2" y1="-220" x2="3331.2" y2="-380" stroke="#7d7160" stroke-width="2" vector-effect="non-scaling-stroke"/><text x="1701.8" y="-370" font-size="200" text-anchor="middle" fill="#7d7160">10' 2"</text><line x1="-300" y1="152.4" x2="-300" y2="762" stroke="#7d7160" stroke-width="1" vector-effect="non-scaling-stroke"/><line x1="-470" y1="152.4" x2="-130" y2="152.4" stroke="#7d7160" stroke-width="1" vector-effect="non-scaling-stroke"/><line x1="-380" y1="232.4" x2="-220" y2="72.4" stroke="#7d7160" stroke-width="2" vector-effect="non-scaling-stroke"/><line x1="-470" y1="762" x2="-130" y2="762" stroke="#7d7160" stroke-width="1" vector-effect="non-scaling-stroke"/><line x1="-380" y1="842" x2="-220" y2="682" stroke="#7d7160" stroke-width="2" vector-effect="non-scaling-stroke"/><text x="-370" y="457.2" font-size="187.56923076923078" text-anchor="middle" fill="#7d7160" transform="rotate(-90 -370 457.2)">2' 0"</text><line x1="-300" y1="863.6" x2="-300" y2="3860.8" stroke="#7d7160" stroke-width="1" vector-effect="non-scaling-stroke"/><line x1="-470" y1="863.6" x2="-130" y2="863.6" stroke="#7d7160" stroke-width="1" vector-effect="non-scaling-stroke"/><line x1="-380" y1="943.6" x2="-220" y2="783.6" stroke="#7d7160" stroke-width="2" vector-effect="non-scaling-stroke"/><line x1="-470" y1="3860.8" x2="-130" y2="3860.8" stroke="#7d7160" stroke-width="1" vector-effect="non-scaling-stroke"/><line x1="-380" y1="3940.8" x2="-220" y2="3780.8" stroke="#7d7160" stroke-width="2" vector-effect="non-scaling-stroke"/><text x="-370" y="2362.2000000000003" font-size="200" text-anchor="middle" fill="#7d7160" transform="rotate(-90 -370 2362.2000000000003)">9' 10"</text><line x1="3352.8" y1="-300" x2="5181.6" y2="-300" stroke="#7d7160" stroke-width="1" vector-effect="non-scaling-stroke"/><line x1="3352.8" y1="-470" x2="3352.8" y2="-130" stroke="#7d7160" stroke-width="1" vector-effect="non-scaling-stroke"/><line x1="3272.8" y1="-220" x2="3432.8" y2="-380" stroke="#7d7160" stroke-width="2" vector-effect="non-scaling-stroke"/><line x1="5181.6" y1="-470" x2="5181.6" y2="-130" stroke="#7d7160" stroke-width="1" vector-effect="non-scaling-stroke"/><line x1="5101.6" y1="-220" x2="5261.6" y2="-380" stroke="#7d7160" stroke-width="2" vector-effect="non-scaling-stroke"/><text x="4267.200000000001" y="-370" font-size="200" text-anchor="middle" fill="#7d7160">6' 0"</text><line x1="5334" y1="-300" x2="6273.8" y2="-300" stroke="#7d7160" stroke-width="1" vector-effect="non-scaling-stroke"/><line x1="5334" y1="-470" x2="5334" y2="-130" stroke="#7d7160" stroke-width="1" vector-effect="non-scaling-stroke"/><line x1="5254" y1="-220" x2="5414" y2="-380" stroke="#7d7160" stroke-width="2" vector-effect="non-scaling-stroke"/><line x1="6273.8" y1="-470" x2="6273.8" y2="-130" stroke="#7d7160" stroke-width="1" vector-effect="non-scaling-stroke"/><line x1="6193.8" y1="-220" x2="6353.8" y2="-380" stroke="#7d7160" stroke-width="2" vector-effect="non-scaling-stroke"/><text x="5803.9" y="-370" font-size="200" text-anchor="middle" fill="#7d7160">3' 1"</text><line x1="5334" y1="-300" x2="8559.8" y2="-300" stroke="#7d7160" stroke-width="1" vector-effect="non-scaling-stroke"/><line x1="5334" y1="-470" x2="5334" y2="-130" stroke="#7d7160" stroke-width="1" vector-effect="non-scaling-stroke"/><line x1="5254" y1="-220" x2="5414" y2="-380" stroke="#7d7160" stroke-width="2" vector-effect="non-scaling-stroke"/><line x1="8559.8" y1="-470" x2="8559.8" y2="-130" stroke="#7d7160" stroke-width="1" vector-effect="non-scaling-stroke"/><line x1="8479.8" y1="-220" x2="8639.8" y2="-380" stroke="#7d7160" stroke-width="2" vector-effect="non-scaling-stroke"/><text x="6946.9" y="-370" font-size="200" text-anchor="middle" fill="#7d7160">10' 7"</text><line x1="-300" y1="3149.6000000000004" x2="-300" y2="6248.4" stroke="#7d7160" stroke-width="1" vector-effect="non-scaling-stroke"/><line x1="-470" y1="3149.6000000000004" x2="-130" y2="3149.6000000000004" stroke="#7d7160" stroke-width="1" vector-effect="non-scaling-stroke"/><line x1="-380" y1="3229.6000000000004" x2="-220" y2="3069.6000000000004" stroke="#7d7160" stroke-width="2" vector-effect="non-scaling-stroke"/><line x1="-470" y1="6248.4" x2="-130" y2="6248.4" stroke="#7d7160" stroke-width="1" vector-effect="non-scaling-stroke"/><line x1="-380" y1="6328.4" x2="-220" y2="6168.4" stroke="#7d7160" stroke-width="2" vector-effect="non-scaling-stroke"/><text x="-370" y="4699" font-size="200" text-anchor="middle" fill="#7d7160" transform="rotate(-90 -370 4699)">10' 2"</text><line x1="2.842170943040401e-14" y1="-700" x2="8712.199999999999" y2="-700" stroke="#7d7160" stroke-width="1" vector-effect="non-scaling-stroke"/><line x1="2.842170943040401e-14" y1="-870" x2="2.842170943040401e-14" y2="-530" stroke="#7d7160" stroke-width="1" vector-effect="non-scaling-stroke"/><line x1="-79.99999999999997" y1="-620" x2="80.00000000000003" y2="-780" stroke="#7d7160" stroke-width="2" vector-effect="non-scaling-stroke"/><line x1="8712.199999999999" y1="-870" x2="8712.199999999999" y2="-530" stroke="#7d7160" stroke-width="1" vector-effect="non-scaling-stroke"/><line x1="8632.199999999999" y1="-620" x2="8792.199999999999" y2="-780" stroke="#7d7160" stroke-width="2" vector-effect="non-scaling-stroke"/><text x="4356.099999999999" y="-770" font-size="200" text-anchor="middle" fill="#7d7160">28' 7"</text><line x1="-700" y1="2.842170943040401e-14" x2="-700" y2="6400.799999999999" stroke="#7d7160" stroke-width="1" vector-effect="non-scaling-stroke"/><line x1="-870" y1="2.842170943040401e-14" x2="-530" y2="2.842170943040401e-14" stroke="#7d7160" stroke-width="1" vector-effect="non-scaling-stroke"/><line x1="-780" y1="80.00000000000003" x2="-620" y2="-79.99999999999997" stroke="#7d7160" stroke-width="2" vector-effect="non-scaling-stroke"/><line x1="-870" y1="6400.799999999999" x2="-530" y2="6400.799999999999" stroke="#7d7160" stroke-width="1" vector-effect="non-scaling-stroke"/><line x1="-780" y1="6480.799999999999" x2="-620" y2="6320.799999999999" stroke="#7d7160" stroke-width="2" vector-effect="non-scaling-stroke"/><text x="-770" y="3200.3999999999996" font-size="200" text-anchor="middle" fill="#7d7160" transform="rotate(-90 -770 3200.3999999999996)">21' 0"</text></g>
      <g id="gMeasure" pointer-events="none"/>
      <g id="gSel"/>
    </svg>